<svg width="128" height="128" viewBox="0 0 128 128" xmlns="http://www.w3.org/2000/svg" fill="none">
  <!-- Corpo da claquete -->
  <rect x="20" y="44" width="88" height="60" rx="8" fill="#CFD8DC" stroke="#000" stroke-width="4" />

  <!-- Barra superior reposicionada e rotacionada melhor -->
  <g transform="rotate(-10 20 40)">
    <path d="M20 40v-14a6 6 0 0 1 6-6h76a6 6 0 0 1 6 6v14H20z" fill="#2196F3" stroke="#000" stroke-width="4" />
    <!-- Listras pretas alinhadas -->
    <line x1="28" y1="20" x2="36" y2="40" stroke="#000" stroke-width="4" />
    <line x1="44" y1="20" x2="52" y2="40" stroke="#000" stroke-width="4" />
    <line x1="60" y1="20" x2="68" y2="40" stroke="#000" stroke-width="4" />
    <line x1="76" y1="20" x2="84" y2="40" stroke="#000" stroke-width="4" />
    <line x1="92" y1="20" x2="100" y2="40" stroke="#000" stroke-width="4" />
  </g>

  <!-- Faixa abaixo da barra -->
  <rect x="20" y="40" width="88" height="20" fill="#2196F3" stroke="#000" stroke-width="4" />
  <line x1="28" y1="40" x2="36" y2="60" stroke="#000" stroke-width="4" />
  <line x1="44" y1="40" x2="52" y2="60" stroke="#000" stroke-width="4" />
  <line x1="60" y1="40" x2="68" y2="60" stroke="#000" stroke-width="4" />
  <line x1="76" y1="40" x2="84" y2="60" stroke="#000" stroke-width="4" />
  <line x1="92" y1="40" x2="100" y2="60" stroke="#000" stroke-width="4" />

  <!-- Botão de play centralizado -->
  <polygon points="60,72 76,82 60,92" fill="#F44336" stroke="#000" stroke-width="2" />
</svg>
