<?xml version="1.0" encoding="iso-8859-1"?>
<!-- Uploaded to: SVG Repo, www.svgrepo.com, Generator: SVG Repo Mixer Tools -->
<svg version="1.1" id="Layer_1" xmlns="http://www.w3.org/2000/svg" xmlns:xlink="http://www.w3.org/1999/xlink" 
	 viewBox="0 0 512 512" xml:space="preserve">
<g>
	<path style="fill:#F15A24;" d="M457.629,124.525H54.371c-18.942,0-34.298-15.356-34.298-34.298l0,0h471.854l0,0
		C491.927,109.169,476.572,124.525,457.629,124.525z"/>
	<rect x="77.239" y="90.232" style="fill:#F15A24;" width="357.533" height="54.045"/>
	<rect x="189.848" y="214.948" style="fill:#F15A24;" width="132.294" height="223.454"/>
</g>
<g>
	<path style="fill:#FBB03B;" d="M341.225,378.121L341.225,378.121c-94.137,0-170.449-76.312-170.449-170.449V90.227h170.449V378.121
		z"/>
	<rect x="149.989" y="438.403" style="fill:#FBB03B;" width="212.021" height="63.398"/>
</g>
<path style="fill:#F15A24;" d="M256,10.199L256,10.199c-17.507,0-31.699,14.192-31.699,31.699v48.329H287.7V41.898
	C287.699,24.391,273.507,10.199,256,10.199z"/>
<path d="M297.898,80.028v-38.13C297.898,18.796,279.102,0,256,0c-23.102,0-41.898,18.796-41.898,41.898v38.13H20.073
	c-5.632,0-10.199,4.567-10.199,10.199c0,24.536,19.961,44.497,44.497,44.497h12.666v9.547c0,5.632,4.567,10.199,10.199,10.199h83.34
	v53.2c0,28.999,6.879,56.419,19.076,80.73v139.802h-29.662c-5.632,0-10.199,4.567-10.199,10.199v63.399
	c0,5.632,4.567,10.199,10.199,10.199h212.021c5.632,0,10.199-4.567,10.199-10.199v-63.399c0-5.632-4.567-10.199-10.199-10.199
	h-29.662V388.1c2.941,0.143,5.9,0.22,8.876,0.22c5.632,0,10.199-4.567,10.199-10.199v-223.65h83.34
	c5.632,0,10.199-4.567,10.199-10.199v-9.547h12.666c24.536,0,44.497-19.961,44.497-44.497c0-5.632-4.567-10.199-10.199-10.199
	C491.927,80.028,297.898,80.028,297.898,80.028z M234.5,41.898c0-11.856,9.644-21.5,21.5-21.5c11.856,0,21.5,9.644,21.5,21.5v38.13
	h-43L234.5,41.898L234.5,41.898z M331.026,100.426v267.174c-83.63-5.277-150.052-74.992-150.052-159.93V100.426H331.026z
	 M54.371,114.326c-9.644,0-17.984-5.695-21.832-13.899h34.499v13.899H54.371z M87.436,134.073v-33.646h73.141v33.646H87.436z
	 M351.811,448.601v43.001H160.189v-43.001H351.811z M311.95,428.202h-111.9V320.245c27.344,34.221,66.845,58.317,111.901,65.691
	v42.267H311.95z M424.564,134.073h-73.141v-33.646h73.141V134.073z M457.629,114.326h-12.666v-13.899h34.499
	C475.613,108.631,467.273,114.326,457.629,114.326z"/>
<path d="M305.887,311.41c5.632,0,10.199-4.567,10.199-10.199V166.098c0-5.632-4.567-10.199-10.199-10.199
	c-5.632,0-10.199,4.567-10.199,10.199v135.113C295.688,306.844,300.255,311.41,305.887,311.41z"/>
<path d="M305.887,346.747c5.632,0,10.199-4.567,10.199-10.199v-6.236c0-5.632-4.567-10.199-10.199-10.199
	c-5.632,0-10.199,4.567-10.199,10.199v6.236C295.688,342.18,300.255,346.747,305.887,346.747z"/>
</svg>