<?xml version="1.0" encoding="iso-8859-1"?>
<!-- Uploaded to: SVG Repo, www.svgrepo.com, Generator: SVG Repo Mixer Tools -->
<svg height="800px" width="800px" version="1.1" id="Layer_1" xmlns="http://www.w3.org/2000/svg" xmlns:xlink="http://www.w3.org/1999/xlink" 
	 viewBox="0 0 512.001 512.001" xml:space="preserve">
<path style="fill:#FD4DD7;" d="M183.913,351.953l-7.008-46.946c-0.15-1.997-0.226-4.015-0.226-6.051
	c0-43.896,35.585-79.481,79.481-79.481s79.481,35.585,79.481,79.481c0,2.036-0.077,4.054-0.226,6.052l-6.339,50.428"/>
<path style="fill:#E846AA;" d="M330.557,343.646l4.857-38.638c0.15-1.998,0.226-4.016,0.226-6.052c0-2.137-0.109-4.249-0.275-6.343
	c-6.133-0.912-12.307-1.245-20.038-0.437c-10.409,1.089-23.882,4.272-39.397,13.007c-12.36,6.958-27.507,6.958-39.867,0
	c-15.516-8.735-28.987-11.919-39.397-13.007c-7.593-0.794-13.686-0.484-19.712,0.392c-0.168,2.109-0.278,4.235-0.278,6.388
	c0,2.036,0.077,4.053,0.226,6.051l5.641,37.789c7.606,2.093,14.917,5.315,21.646,9.643l103.942,2.494
	C315.014,349.938,322.601,346.164,330.557,343.646z"/>
<circle style="fill:#FFDB6C;" cx="256.157" cy="298.953" r="40.743"/>
<path style="fill:#FFB966;" d="M296.908,298.957c0-0.978-0.047-1.944-0.115-2.903c-6.406,2.018-13.394,4.926-20.861,9.129
	c-12.36,6.958-27.507,6.958-39.867,0c-7.346-4.135-14.225-7.015-20.547-9.028c-0.063,0.927-0.107,1.859-0.107,2.803
	c0,22.504,18.243,40.747,40.747,40.747S296.908,321.461,296.908,298.957z"/>
<path style="fill:#7C54B8;" d="M503.548,317.396c0.302-10.671-12.096-16.741-20.384-10.012c-9.431,7.658-21.526,15.091-36.46,19.642
	c-17.844,5.439-32.715,4.622-55.093,3.391c-42.706-2.349-51.496-11.492-76.282-8.9c-10.409,1.089-23.882,4.272-39.397,13.007
	c-12.36,6.958-27.507,6.958-39.867,0c-15.516-8.735-28.987-11.919-39.397-13.007c-24.786-2.592-33.577,6.551-76.282,8.9
	c-22.378,1.231-37.248,2.048-55.093-3.391c-14.933-4.552-27.028-11.985-36.46-19.642c-8.288-6.729-20.685-0.658-20.384,10.012
	c0.062,2.19,3.4,70.639,39.892,113.246c10.508,12.269,35.121,41.007,75.328,48.948c48.088,9.498,98.806-13.301,108.067-21.614
	c1.291-1.159,7.963-7.584,16.206-8.582c1.078-0.131,4.215-0.414,8.098-0.419c3.878-0.005,7.079,0.271,8.271,0.419
	c8.16,1.006,14.628,7.378,15.948,8.582c9.202,8.388,59.76,31.154,108.067,21.614c40.207-7.941,64.821-36.679,75.328-48.948
	C500.148,388.035,503.486,319.586,503.548,317.396z M210.465,414.731c-35.896,24.357-84.74,15.002-109.096-20.894l0,0l16.203-10.994
	c35.896-24.357,84.74-15.002,109.096,20.894l0,0L210.465,414.731z M414.601,393.837c-24.357,35.896-73.201,45.25-109.096,20.894
	l-16.203-10.994l0,0c24.357-35.896,73.201-45.251,109.096-20.894L414.601,393.837L414.601,393.837z"/>
<g>
	<path style="fill:#674799;" d="M483.164,307.384c-9.431,7.658-21.526,15.091-36.459,19.642c-3.078,0.938-6.064,1.679-9.019,2.275
		c-1.874,19.178-5.991,62.996-38.833,101.343c-9.928,11.591-32.454,37.873-68.818,47.438c17.733,3.85,38.202,5.477,58.294,1.51
		c40.207-7.941,64.82-36.679,75.328-48.948c36.493-42.608,39.83-111.056,39.892-113.246
		C503.849,306.725,491.451,300.655,483.164,307.384z"/>
	<path style="fill:#674799;" d="M215.457,457.977c-1.321-1.204-7.789-7.575-15.948-8.582c-1.193-0.146-4.393-0.422-8.271-0.419
		c-3.883,0.004-7.02,0.288-8.098,0.419c-8.244,0.998-14.915,7.423-16.206,8.582c-5.412,4.857-24.987,14.653-49.913,20.069
		c2.17,0.574,4.382,1.097,6.651,1.545c39.869,7.874,81.521-6.446,99.88-16.311C219.807,461.251,217.021,459.404,215.457,457.977z"/>
</g>
<path style="fill:#3CC247;" d="M414.241,114.365c-22.571,5.863-44.095,16.049-63.22,30.334c0.477,17.83-1.663,36.03-6.723,54.105
	c-5.403,19.299-13.723,36.993-24.338,52.751c6.135,8.245,10.705,17.721,13.283,27.989c17.927-11.9,34.041-27.186,47.322-45.713
	C406.431,197.747,417.24,155.433,414.241,114.365z"/>
<path style="fill:#FFDB6C;" d="M335.099,75.023c-15.007,10.333-28.508,22.932-39.939,37.468c2.118,11.119,3.238,22.593,3.238,34.33
	c0,27.439-6.071,53.453-16.926,76.796c15.521,5.213,28.911,15.069,38.49,27.94c10.614-15.76,18.935-33.452,24.338-52.752
	C356.268,156.05,351.958,112.592,335.099,75.023z"/>
<path style="fill:#3CC247;" d="M256.16,219.476c8.856,0,17.364,1.471,25.32,4.143c10.852-23.342,16.919-49.36,16.919-76.798
	c0-44.398-15.866-85.086-42.229-116.719c-26.364,31.633-42.229,72.32-42.229,116.719c0,27.436,6.065,53.452,16.915,76.793
	C238.806,220.944,247.309,219.476,256.16,219.476z"/>
<path style="fill:#FFDB6C;" d="M230.848,223.616c-10.855-23.341-16.926-49.357-16.926-76.796c0-11.736,1.119-23.21,3.238-34.33
	c-11.431-14.536-24.933-27.134-39.939-37.468c-16.859,37.568-21.169,81.028-9.199,123.782c5.403,19.299,13.724,36.992,24.338,52.752
	C201.938,238.684,215.326,228.829,230.848,223.616z"/>
<path style="fill:#3CC247;" d="M192.359,251.556c-10.615-15.759-18.935-33.452-24.338-52.751c-5.061-18.076-7.2-36.277-6.723-54.106
	c-19.124-14.285-40.648-24.473-63.22-30.334c-2.999,41.068,7.811,83.382,33.677,119.468c13.28,18.527,29.395,33.813,47.322,45.713
	C181.654,269.277,186.224,259.801,192.359,251.556z"/>
<path style="fill:#2DA85F;" d="M345.491,194.3c-0.379,1.502-0.773,3.004-1.193,4.504c-5.403,19.299-13.723,36.993-24.338,52.751
	c6.135,8.245,10.705,17.721,13.283,27.989c17.817-11.826,33.841-27.002,47.074-45.376
	C371.242,218.824,359.409,205.303,345.491,194.3z"/>
<path style="fill:#FFB966;" d="M319.96,251.556c10.614-15.76,18.935-33.452,24.338-52.752c0.42-1.5,0.815-3.001,1.195-4.503
	c-14.229-11.25-30.63-19.866-48.47-25.129c-2.355,19.232-7.69,37.541-15.551,54.443C296.993,228.829,310.382,238.684,319.96,251.556
	z"/>
<path style="fill:#2DA85F;" d="M297.022,169.173c-12.954-3.822-26.663-5.883-40.856-5.883s-27.902,2.061-40.856,5.883
	c2.352,19.231,7.685,37.539,15.542,54.441c7.952-2.67,16.455-4.139,25.305-4.139c8.856,0,17.364,1.471,25.32,4.143
	C289.337,206.716,294.67,188.405,297.022,169.173z"/>
<path style="fill:#FFB966;" d="M168.021,198.805c5.403,19.299,13.724,36.992,24.338,52.752c9.579-12.872,22.967-22.727,38.49-27.94
	c-7.859-16.901-13.195-35.209-15.551-54.439c-17.841,5.266-34.242,13.884-48.469,25.136
	C167.208,195.811,167.602,197.308,168.021,198.805z"/>
<path style="fill:#2DA85F;" d="M179.076,279.545c2.578-10.268,7.147-19.744,13.283-27.989
	c-10.615-15.759-18.935-33.452-24.338-52.751c-0.419-1.497-0.811-2.995-1.19-4.494c-13.915,11.004-25.748,24.525-34.821,39.87
	C145.242,252.55,161.263,267.721,179.076,279.545z"/>
<g>
	<circle style="fill:#FFDB6C;" cx="255.999" cy="379.605" r="8.446"/>
	<circle style="fill:#FFDB6C;" cx="224.817" cy="363.885" r="8.446"/>
	<circle style="fill:#FFDB6C;" cx="192.362" cy="348.153" r="8.446"/>
	<circle style="fill:#FFDB6C;" cx="158.77" cy="346.993" r="8.446"/>
	<circle style="fill:#FFDB6C;" cx="128.128" cy="351.959" r="8.446"/>
	<circle style="fill:#FFDB6C;" cx="97.588" cy="360.405" r="8.446"/>
	<circle style="fill:#FFDB6C;" cx="289.918" cy="363.885" r="8.446"/>
	<circle style="fill:#FFDB6C;" cx="322.373" cy="348.153" r="8.446"/>
	<circle style="fill:#FFDB6C;" cx="355.965" cy="346.993" r="8.446"/>
	<circle style="fill:#FFDB6C;" cx="386.606" cy="351.959" r="8.446"/>
	<circle style="fill:#FFDB6C;" cx="417.147" cy="360.405" r="8.446"/>
</g>
<path d="M215.412,307.404c4.666,0,8.446-3.782,8.446-8.446c0-17.812,14.491-32.303,32.303-32.303s32.303,14.491,32.303,32.303
	c0,4.664,3.78,8.446,8.446,8.446c4.666,0,8.446-3.782,8.446-8.446c0-27.126-22.069-49.195-49.194-49.195
	s-49.194,22.069-49.194,49.195C206.966,303.623,210.746,307.404,215.412,307.404z"/>
<circle cx="256.168" cy="299.358" r="8.446"/>
<circle cx="255.999" cy="379.605" r="8.446"/>
<circle cx="224.817" cy="363.885" r="8.446"/>
<circle cx="192.362" cy="348.153" r="8.446"/>
<circle cx="158.77" cy="346.993" r="8.446"/>
<circle cx="128.128" cy="351.959" r="8.446"/>
<circle cx="97.588" cy="360.405" r="8.446"/>
<circle cx="289.918" cy="363.885" r="8.446"/>
<circle cx="322.373" cy="348.153" r="8.446"/>
<circle cx="355.965" cy="346.993" r="8.446"/>
<circle cx="386.606" cy="351.959" r="8.446"/>
<circle cx="417.147" cy="360.405" r="8.446"/>
<path d="M500.343,298.305c-7.439-3.673-16.063-2.707-22.503,2.52c-10.31,8.372-21.614,14.468-33.598,18.12
	c-16.413,5.003-29.869,4.264-52.166,3.036c-19.871-1.092-32.318-3.739-42.321-5.865c-2.352-0.5-4.637-0.983-6.91-1.426l0.965-8.757
	c0.01-0.097,0.02-0.194,0.026-0.291c0.166-2.204,0.251-4.454,0.251-6.687c0-5.342-0.506-10.565-1.422-15.647
	c17.273-12.233,32.317-27.195,44.764-44.558c25.964-36.222,38.476-80.614,35.235-125.004c-0.182-2.5-1.466-4.789-3.503-6.249
	c-2.038-1.461-4.618-1.941-7.044-1.311c-19.156,4.975-37.163,12.769-53.719,23.21c-2.113-19.86-7.322-39.404-15.593-57.835
	c-1.026-2.287-3.016-4-5.429-4.676c-2.413-0.676-5.001-0.245-7.066,1.177c-11.217,7.725-21.512,16.606-30.789,26.469
	c-7.251-25.439-19.742-49.298-36.862-69.841c-1.605-1.925-3.982-3.038-6.489-3.038c-2.507,0-4.884,1.114-6.489,3.038
	c-17.124,20.546-29.617,44.411-36.867,69.855c-9.28-9.869-19.58-18.754-30.803-26.484c-2.065-1.421-4.659-1.854-7.066-1.177
	c-2.414,0.676-4.403,2.388-5.429,4.676c-8.27,18.431-13.481,37.975-15.593,57.835c-16.556-10.442-34.563-18.235-53.719-23.21
	c-2.425-0.629-5.007-0.149-7.044,1.311c-2.038,1.459-3.321,3.75-3.503,6.249c-3.241,44.388,9.271,88.782,35.235,125.004
	c12.447,17.364,27.491,32.325,44.764,44.558c-0.917,5.082-1.422,10.305-1.422,15.647c0,2.233,0.084,4.482,0.251,6.686
	c0.009,0.115,0.02,0.23,0.033,0.345l1.009,8.631c-2.395,0.462-4.802,0.971-7.283,1.498c-10.002,2.126-22.449,4.772-42.321,5.865
	c-22.295,1.226-35.753,1.967-52.166-3.036c-11.984-3.653-23.288-9.749-33.599-18.122c-6.44-5.227-15.062-6.194-22.502-2.52
	c-7.417,3.661-11.879,11.069-11.646,19.329c0.072,2.572,0.911,10.604,1.124,12.792c1.916,19.616,6.402,65.554,40.796,105.712
	c11.08,12.936,37.026,43.231,80.108,51.74c50.538,9.982,103.675-13.141,115.346-23.614l0.282-0.256
	c5.079-4.631,8.946-5.941,11.298-6.226c1.004-0.122,13.507-0.101,14.32-0.001c2.286,0.282,6.047,1.578,10.981,6.154l0.31,0.286
	c9.554,8.711,47.538,26.128,89.237,26.128c8.632,0,17.424-0.747,26.156-2.471c43.083-8.509,69.028-38.804,80.108-51.74
	c34.394-40.159,38.879-86.095,40.796-105.712c0.213-2.188,1.052-10.22,1.124-12.79C512.223,309.374,507.76,301.967,500.343,298.305z
	 M395.711,187.215c-7.241,19.837-18.103,38.289-31.91,54.265c-7.822,9.051-16.579,17.288-26.098,24.534
	c-1.062-2.633-2.277-5.221-3.588-7.739c-0.642-1.233-3.302-5.806-3.982-6.861c0.092-0.152,3.813-6.331,4.51-7.559
	c1.477-2.599,2.888-5.234,4.241-7.901c5.261-10.375,9.528-21.243,12.832-32.393c3.345-11.286,5.586-22.908,6.797-34.612
	c0.642-6.199,0.991-12.429,1.017-18.662c0.003-0.758-0.162-1.223,0.493-1.685c0.548-0.386,9.892-6.503,12.313-7.919
	c10.72-6.268,17.197-9.77,33.925-15.196C406.514,146.481,402.91,167.493,395.711,187.215z M180.914,88.205
	c6.715,5.245,13.045,10.984,18.918,17.159c1.491,1.568,8.203,8.83,8.305,9.788c0.105,0.98-1.596,11.347-1.81,13.615
	c-0.87,9.233-1.074,18.527-0.605,27.789c0.238,4.686,0.588,9.393,1.243,14.039c0.642,4.552,4.644,8.172,9.34,7.643
	c6.468-0.729,7.744-6.636,7.145-12.048c-0.981-8.867-1.289-17.811-0.91-26.724c0.688-16.19,3.658-32.273,8.781-47.647
	c5.092-15.281,12.307-29.849,21.393-43.149c1.123-1.644,2.275-3.269,3.454-4.873c9.625,13.096,17.385,27.547,23.008,42.795
	c5.647,15.313,9.156,31.436,10.319,47.718c0.628,8.811,0.598,17.656-0.097,26.462c-0.5,6.331-2.331,16.319,7.168,16.851
	c8.955,0.502,9.229-9.724,9.709-16.07c0.653-8.622,0.729-17.267,0.239-25.898c-0.259-4.565-0.694-9.124-1.283-13.659
	c-0.288-2.221-0.92-4.546-1.003-6.777c-0.025-0.653,3.16-4.26,3.876-5.072c5.681-6.437,11.841-12.45,18.411-17.977
	c1.607-1.351,3.238-2.673,4.892-3.966c7.116,18.855,10.901,38.939,11.172,59.089c0.273,20.231-2.981,40.55-9.681,59.648
	c-3.703,10.553-8.359,20.745-13.993,30.409c-12.742-12.999-29.342-21.617-47.208-24.921c-18.007-3.33-36.999-0.654-53.5,7.223
	c-9.212,4.397-17.632,10.409-24.777,17.698c-10.096-17.319-17.222-36.439-20.812-56.166c-3.601-19.789-3.827-40.124-0.547-59.975
	C173.919,109.952,176.886,98.88,180.914,88.205C190.953,96.047,180.914,88.205,180.914,88.205z M174.616,266.014
	c-16.971-12.915-31.502-28.999-42.686-47.155c-10.982-17.829-18.7-37.629-22.694-58.183c-2.25-11.582-3.321-23.392-3.181-35.189
	c10.542,3.419,20.755,7.845,30.449,13.216c4.792,2.654,9.455,5.538,13.973,8.636c0.553,0.38,2.176,1.455,2.309,2.056
	c0.054,0.242,0.037,4.156,0.088,5.788c0.097,3.115,0.273,6.226,0.523,9.332c1.886,23.401,8.027,46.368,18.127,67.563
	c2.786,5.847,10.377,18.474,10.524,19.108c0.135,0.587-2.534,4.635-3.259,5.983C177.245,260.035,175.834,262.994,174.616,266.014
	C160.875,255.556,174.779,265.61,174.616,266.014z M185.314,304.205c-1.025-14.011,2.161-28.189,9.133-40.388
	c6.071-10.623,14.89-19.614,25.393-25.888c12.202-7.29,26.528-10.721,40.709-9.849c13.632,0.838,26.873,5.659,37.84,13.793
	c9.838,7.296,17.736,17.127,22.713,28.321c5.105,11.483,6.991,24.154,5.616,36.628c-0.194,1.758-0.569,5.703-0.637,5.787
	c-0.163,0.2-5.231,0.044-6.995,0.14c-11.638,0.626-23.097,3.464-33.857,7.893c-10.406,4.284-19.522,11.329-31.318,10.57
	c-10.774-0.694-19.991-7.895-29.847-11.661c-10.812-4.132-22.35-6.66-33.942-6.904c-0.834-0.018-3.65,0.129-3.831-0.088
	C186.065,312.285,185.461,305.464,185.314,304.205C184.289,290.194,185.461,305.464,185.314,304.205z M494.055,328.783
	c-1.91,19.557-5.884,60.253-36.813,96.365c-9.939,11.606-33.215,38.782-70.55,46.156c-47.408,9.366-94.704-14.065-100.74-19.569
	c-6.858-6.346-14.864-10.752-24.324-10.824c-3.526-0.027-7.052-0.002-10.578,0.034c-2.89,0.029-5.468,0.115-8.301,0.895
	c-6.323,1.742-11.843,5.486-16.652,9.852c-6.123,5.494-53.714,28.912-100.789,19.612c-37.335-7.374-60.611-34.55-70.55-46.156
	c-30.93-36.112-34.903-76.808-36.813-96.365c-0.226-2.322-0.993-9.606-1.051-11.626c-0.063-2.231,1.376-3.279,2.238-3.706
	c0.707-0.349,2.548-0.998,4.379,0.489c12.012,9.752,25.241,16.873,39.321,21.164c19.278,5.875,35.527,4.981,58.019,3.744
	c21.177-1.164,34.333-3.962,44.905-6.209c5.229-1.111,9.624-2.042,14.01-2.596c0.023-0.002,0.044-0.001,0.066-0.003
	c0.037-0.004,0.072-0.013,0.108-0.018c4.896-0.607,9.797-0.74,15.849-0.106c12.125,1.268,24.281,5.294,36.133,11.966
	c14.851,8.361,33.304,8.36,48.154,0l0,0c11.852-6.673,24.009-10.699,36.133-11.967c11.543-1.207,18.9,0.356,30.035,2.723
	c10.572,2.248,23.727,5.044,44.905,6.209c22.492,1.238,38.742,2.132,58.019-3.744c14.08-4.292,27.308-11.412,39.32-21.164
	c1.833-1.488,3.673-0.837,4.381-0.489c0.863,0.426,2.301,1.474,2.238,3.707C495.047,319.178,494.281,326.461,494.055,328.783
	C492.144,348.341,494.281,326.461,494.055,328.783z"/>
<path d="M419.343,386.848l-16.203-10.994c-19.226-13.046-42.384-17.822-65.206-13.455c-22.822,4.37-42.576,17.367-55.622,36.595
	c-1.258,1.854-1.727,4.131-1.306,6.331s1.699,4.143,3.553,5.4l16.204,10.994c14.928,10.129,31.903,14.981,48.714,14.98
	c27.887-0.001,55.31-13.356,72.113-38.12C424.209,394.72,423.203,389.468,419.343,386.848z M310.247,407.742l-8.798-5.971
	c10.251-11.808,24.067-19.794,39.664-22.78c18.388-3.52,37.049,0.329,52.545,10.841l8.795,5.967
	C379.515,422.156,339.868,427.841,310.247,407.742z"/>
<path d="M178.036,362.399c-22.82-4.368-45.977,0.408-65.206,13.455l-16.203,10.994c-3.86,2.619-4.866,7.87-2.247,11.731
	c13.046,19.227,32.799,32.224,55.621,36.594c5.515,1.056,11.051,1.578,16.544,1.578c17.241,0,34.082-5.138,48.662-15.033
	l16.203-10.994c3.86-2.619,4.866-7.872,2.247-11.731C220.61,379.766,200.855,366.771,178.036,362.399z M205.722,407.742
	c-29.621,20.098-69.268,14.412-92.205-11.942l8.796-5.967c15.495-10.513,34.159-14.364,52.544-10.841
	c15.597,2.986,29.414,10.972,39.665,22.78L205.722,407.742z"/>
</svg>