<?xml version="1.0" encoding="iso-8859-1"?>
<!-- Uploaded to: SVG Repo, www.svgrepo.com, Generator: SVG Repo Mixer Tools -->
<svg height="800px" width="800px" version="1.1" id="Layer_1" xmlns="http://www.w3.org/2000/svg" xmlns:xlink="http://www.w3.org/1999/xlink" 
	 viewBox="0 0 512.001 512.001" xml:space="preserve">
<path style="fill:#69539C;" d="M233.326,135.95c-8.3,37.757-22.485,96.031-22.485,161.426c0,113.828,24.985,206.104,44.874,206.104
	s45.442-92.275,45.442-206.104c0-65.395-14.753-123.668-23.053-161.426L233.326,135.95L233.326,135.95z"/>
<path style="fill:#E44F50;" d="M233.326,135.95c-9.557-13.054-12.994-25.063-14.362-33.058
	c-8.914-52.09,42.844-92.422,45.422-94.371c-0.946,23.906,4.4,40.579,9.612,51.526c8.393,17.628,18.354,24.429,19.391,39.337
	c1.046,15.032-7.699,27.965-15.286,36.566"/>
<path style="fill:#DD263D;" d="M293.391,99.383c-1.038-14.907-10.998-21.708-19.391-39.337c-5.212-10.947-10.559-27.62-9.612-51.526
	c-1.23,0.929-13.654,10.602-25.344,26.115c1.854,10.626,4.94,19.007,7.989,25.411c8.394,17.628,18.354,24.429,19.391,39.337
	c1.046,15.032-6.731,29.939-33.097,36.566h44.779C285.691,127.349,294.437,114.414,293.391,99.383z"/>
<path style="fill:#4F4482;" d="M278.105,135.95h-26.508c8.3,37.757,23.053,96.031,23.053,161.426
	c0,89.384-15.757,165.467-32.155,194.027c4.443,7.81,8.949,12.076,13.22,12.076c19.889,0,45.442-92.275,45.442-206.104
	C301.158,231.981,286.405,173.707,278.105,135.95z"/>
<path style="fill:#E6E7E8;" d="M293.364,209.981c-4.834-28.997-10.924-54.316-15.258-74.031h-44.78
	c-4.334,19.716-10.27,45.035-14.956,74.031H293.364z"/>
<path style="fill:#D1D3D4;" d="M293.364,209.981c-4.255-25.524-9.483-48.193-13.629-66.705c-0.016-0.069-0.031-0.136-0.045-0.206
	c-0.26-1.163-0.518-2.316-0.77-3.446c-0.277-1.245-0.549-2.472-0.813-3.675h-26.508c4.334,19.716,10.426,45.035,15.258,74.031
	H293.364z"/>
<path d="M289.116,146.167c-0.203-0.905-1.401-6.239-1.784-7.962c10.562-13.107,15.467-26.35,14.556-39.415
	c-0.799-11.495-5.815-19.037-11.128-27.023c-3.02-4.542-6.143-9.237-9.069-15.385c-6.538-13.733-9.496-29.723-8.792-47.526
	c0.13-3.291-1.648-6.363-4.568-7.889c-2.917-1.526-6.456-1.23-9.084,0.755c-2.395,1.811-58.537,45.01-48.682,102.606
	c2.009,11.737,6.596,22.964,13.634,33.431c-0.39,1.757-0.786,3.543-1.195,5.382c-0.335,1.509-0.68,3.059-1.028,4.628
	c-0.876,3.944-9.57,45.706-12.017,60.852c-0.023,0.137-0.028,0.276-0.044,0.414c-4.308,26.806-7.593,56.858-7.593,88.34
	c0,53.36,5.4,105.806,15.203,147.68c4.452,19.015,9.689,34.92,15.147,45.993c6.946,14.099,14.485,20.951,23.045,20.951
	c8.548,0,16.11-6.843,23.119-20.919c5.521-11.09,10.829-26.994,15.35-45.995c9.992-41.992,15.495-94.45,15.495-147.71
	C309.679,237.657,297.794,184.778,289.116,146.167z M239.639,146.842c0.03-0.132,0.058-0.26,0.087-0.391
	c0.148-0.665,0.295-1.327,0.441-1.98h31.103c0.391,1.747,0.792,3.531,1.201,5.351c3.289,14.63,7.264,32.321,10.762,51.64H228.45
	C232.066,180.884,236.214,162.237,239.639,146.842z M256.422,27.413c1.326,13.11,4.631,25.263,9.884,36.296
	c3.449,7.246,7.071,12.691,10.267,17.495c4.715,7.09,7.831,11.774,8.317,18.77c0.6,8.614-3.026,17.837-10.757,27.454h-36.348
	c-5.376-8.218-8.877-16.938-10.423-25.975C221.962,69.897,242.132,42.414,256.422,27.413z M278.664,436.571
	c-9.517,42.236-19.508,56.066-22.943,58.212c-3.41-2.159-13.308-16.013-22.66-58.245c-8.834-39.891-13.7-89.313-13.7-139.162
	c0-28.066,2.615-54.616,6.274-78.873h60.484c3.783,24.28,6.518,50.867,6.518,78.873
	C292.638,347.143,287.675,396.578,278.664,436.571z"/>
</svg>